<svg width="105" height="123" viewBox="0 0 105 123" fill="none" xmlns="http://www.w3.org/2000/svg">
<path fill-rule="evenodd" clip-rule="evenodd" d="M25.8 2.53C27.65 1.77 29.53 1.04 31.52 0.489997C33.86 -0.160003 34.08 -0.140003 36.42 0.419997C39.98 1.27 43.15 2.51 45.9 4.17C51.31 7.43 53.86 10.92 55.37 16.91C59.13 15.38 62.68 15.76 64.82 18.63C67.95 22.84 66.87 28.8 62.15 31.5C60.29 32.56 58.06 32.64 55.15 31.55C54.78 32.94 54.31 34.36 53.73 35.82C50.27 44.57 43.47 49.16 33.96 49.14C22.83 49.12 15.36 41.11 12.83 31.59C9.97 32.64 7.77 32.55 5.93 31.5C1.21 28.8 0.14 22.84 3.26 18.63C5.43 15.71 9.06 15.36 12.89 16.98C14.69 10.82 18.87 5.4 25.8 2.53ZM27.34 37.01C26.74 37.11 26.18 36.71 26.08 36.11C25.98 35.51 26.38 34.95 26.98 34.85C29.44 34.44 31.9 34.25 34.35 34.27C36.8 34.28 39.22 34.5 41.61 34.89C42.21 34.99 42.61 35.55 42.52 36.15C42.42 36.75 41.86 37.15 41.26 37.06C38.96 36.68 36.65 36.48 34.34 36.46C32.03 36.43 29.7 36.61 27.34 37.01ZM36.36 25.36C36.82 25.36 37.19 25.73 37.19 26.19C37.19 26.65 36.82 27.02 36.36 27.02C35.9 27.02 35.53 26.65 35.53 26.19C35.53 25.73 35.9 25.36 36.36 25.36ZM43.06 19.83C44.27 19.83 45.25 20.81 45.25 22.02C45.25 23.23 44.27 24.21 43.06 24.21C41.85 24.21 40.87 23.23 40.87 22.02C40.86 20.81 41.84 19.83 43.06 19.83ZM25.4 19.83C26.61 19.83 27.59 20.81 27.59 22.02C27.59 23.23 26.61 24.21 25.4 24.21C24.19 24.21 23.21 23.23 23.21 22.02C23.2 20.81 24.19 19.83 25.4 19.83ZM32.29 25.36C32.75 25.36 33.12 25.73 33.12 26.19C33.12 26.65 32.75 27.02 32.29 27.02C31.83 27.02 31.46 26.65 31.46 26.19C31.46 25.73 31.83 25.36 32.29 25.36ZM55.85 19.17C56.4 22.45 56.36 25.92 55.61 29.63C55.65 29.47 55.68 29.32 55.72 29.16C57.62 29.81 59.11 29.74 60.34 29.05C63.6 27.24 64.34 23.24 62.18 20.41C60.74 18.52 58.37 18.23 55.85 19.17ZM12.31 29.18C11.73 25.88 11.74 22.48 12.37 19.21C9.8 18.22 7.38 18.48 5.92 20.4C3.76 23.23 4.5 27.23 7.76 29.04C8.98 29.73 10.44 29.81 12.31 29.18ZM24.24 10.49C28.54 10.05 30.34 11.86 33.59 12.1C34.86 12.03 36.12 12.07 37.26 11.69C38.23 11.37 39.22 11.05 40.24 10.8C43.58 9.97 45.88 10.36 48.89 12.23C49.37 12.53 49.82 12.86 50.22 13.22C51.82 14.65 52.85 16.6 53.13 19.24C53.43 24.13 51.47 27.48 47.37 29.37C50.46 37.86 48.34 43.55 38.42 45.05C30.35 46.01 18.87 44.34 19.85 33.83C20 32.23 20.46 30.69 21.2 29.21C11.67 24.58 14.89 11.44 24.24 10.49ZM15.11 44.01C24.48 57.78 43.47 57.3 52.53 44.29C61.7 49.09 66.67 63.8 65.44 73.64C62.08 75.86 58.75 78.24 55.98 81.07C53.09 84.02 50.8 87.46 49.69 91.67C49.66 91.78 49.64 91.89 49.64 92L49.4 97.13C48.29 98.84 47.12 99.87 45.98 100.35C45.12 100.71 44.29 100.75 43.53 100.55C42.75 100.34 42.02 99.85 41.41 99.17C40.5 98.15 39.89 96.71 39.76 95.06C39.56 89.7 40.92 85.11 43.46 81.08C46.05 76.97 49.9 73.4 54.6 70.17C55.05 69.86 55.33 69.31 55.27 68.72C55.03 66.32 54.68 64.09 54.11 62.06C53.51 59.96 52.67 58.05 51.47 56.35C50.97 55.64 49.98 55.47 49.27 55.97C48.56 56.47 48.38 57.46 48.89 58.17C49.87 59.56 50.57 61.15 51.07 62.93C51.52 64.53 51.82 66.26 52.04 68.11C47.36 71.43 43.49 75.12 40.8 79.4C37.92 83.97 36.38 89.17 36.62 95.24C36.62 95.26 36.62 95.28 36.62 95.3C37.57 99.55 41.41 105.61 45.36 107.38C46.01 105.32 46.54 104.23 47.77 103.01C53.02 100.31 52.56 97.29 52.79 92.33C53.76 88.78 55.73 85.84 58.23 83.29C60.75 80.71 63.81 78.51 66.91 76.45C68.64 79.36 68.91 79.68 67.63 84.49L60.55 101.57C61.16 101.44 61.77 101.32 62.37 101.21C64.16 100.91 65.94 100.76 67.46 100.93C68.81 101.08 70.3 101.36 71.75 101.81C73.01 102.2 74.24 102.64 75.33 103.31C75.37 103.33 75.41 103.36 75.44 103.39L76.08 103.85C84.33 109.82 92.06 115.42 101.97 112.96C102.89 112.73 103.83 113.71 104.05 114.64C104.28 115.56 103.71 116.5 102.79 116.72C91.33 119.57 82.97 113.51 74.06 107.05L73.46 106.62C72.64 106.13 71.71 105.74 70.74 105.45C69.52 105.07 68.24 104.84 67.08 104.71C65.9 104.58 64.44 104.71 62.93 104.96C61.56 105.19 60.19 105.52 58.94 105.85L57.09 110.41C59.76 110.22 62.22 111.17 64.16 114.85C64.79 119.12 63.12 121.99 58.2 122.89L45.73 119.98C43.04 118.13 42.2 115.48 43.37 111.94C36.71 109.77 34.39 103.8 33.53 96.55L30 99.16C30.56 98.01 30.93 96.7 31.03 95.29C31.03 95.27 31.03 95.25 31.03 95.23C31.26 89.17 29.75 83.97 26.88 79.4C24.2 75.12 20.35 71.42 15.67 68.1C15.88 66.23 16.17 64.49 16.6 62.9C17.09 61.14 17.76 59.55 18.75 58.16C19.25 57.45 19.08 56.46 18.37 55.96C17.66 55.46 16.67 55.63 16.17 56.34C14.97 58.04 14.15 59.95 13.56 62.07C13 64.11 12.67 66.33 12.43 68.71C12.37 69.3 12.65 69.84 13.1 70.16C17.8 73.39 21.63 76.96 24.2 81.07C26.73 85.1 28.07 89.69 27.87 95.06C27.74 96.71 27.13 98.15 26.22 99.17C25.61 99.85 24.88 100.34 24.1 100.55C23.35 100.76 22.51 100.71 21.65 100.35C20.51 99.87 19.33 98.85 18.23 97.13L17.99 92C17.98 91.88 17.97 91.77 17.94 91.67C16.83 87.45 14.54 84.02 11.65 81.07C8.85 78.2 5.48 75.81 2.09 73.57C2 73.51 1.9 73.46 1.8 73.42L2.69 66.01C3.85 58.26 4.13 55.94 9.33 49.47C11.1 47.3 13.01 45.47 15.11 44.01ZM21.59 103.64L24.95 111.65C26.37 116 25.31 118.75 21.9 119.97L10.67 122.88C2.64 122.08 1.25 111.71 11.36 109.99L0 81.44C0.46 80.01 0.11 78.11 1.39 77.14L1.42 76.89C4.3 78.82 7.1 80.89 9.44 83.29C11.94 85.84 13.91 88.78 14.88 92.33L15.13 97.64C15.13 97.91 15.21 98.19 15.36 98.44C16.9 100.97 18.68 102.51 20.46 103.26C20.84 103.43 21.21 103.55 21.59 103.64Z" fill="#f9d423"/>
</svg>
